# xmcd
#
# Track frame offsets:
#	150
#	6472
#	24020
#	32644
#	48321
#	62721
#	79746
#	100372
#	112820
#	129169
#	149793
#	166892
#	180443
#	191608
#	212908
#	230456
#	249432
#	268332
#	289845
#	297944
#	302969
#	328168
#	342117
#	354117
#
# Disc length: 4825 seconds
#
# Revision: 0
# Processed by: cddbd v1.5.1PL0 Copyright (c) Steve Scherf et al.
# Submitted via: EasyCDDAExtractor 4.6.9.1
#
DISCID=5f12d718
DTITLE=And One - Live In Magdeburg
DYEAR=1998
DGENRE=electronic
TTITLE0=Uns Geht's Gut
TTITLE1=My Warrior
TTITLE2=Sweety Sweety
TTITLE3=Fur
TTITLE4=Metalhammer
TTITLE5=Sometimes
TTITLE6=High
TTITLE7=Sitata Tirulala
TTITLE8=Take Some More
TTITLE9=Dein Duft
TTITLE10=Nordhausen
TTITLE11=Klaus
TTITLE12=Ich Esse Ein Brot
TTITLE13=Tanz Der Arroganz
TTITLE14=Second Voice
TTITLE15=Deutschmachine
TTITLE16=Recover You
TTITLE17=Spontanverkehr
TTITLE18=Everybody
TTITLE19=Die Stille Vor Dem Ton
TTITLE20=Technoman
TTITLE21=Driving With My Darling
TTITLE22=Life Isn't Easy In Germany
TTITLE23=Loser
EXTD=
EXTT0=
EXTT1=
EXTT2=
EXTT3=
EXTT4=
EXTT5=
EXTT6=
EXTT7=
EXTT8=
EXTT9=
EXTT10=
EXTT11=
EXTT12=
EXTT13=
EXTT14=
EXTT15=
EXTT16=
EXTT17=
EXTT18=
EXTT19=
EXTT20=
EXTT21=
EXTT22=
EXTT23=
PLAYORDER=
